<svg xmlns="http://www.w3.org/2000/svg" viewBox="0 0 526 297" width="526pt" height="396"><defs><marker orient="auto" overflow="visible" id="a" viewBox="-1 -4 10 8" markerWidth="10" markerHeight="8" color="#000"><path d="M8 0H0m0-3l8 3-8 3" fill="none" stroke="currentColor"/></marker></defs><g fill="none"><title>code1-step2</title><path fill="#fff" d="M0 0h717v615H0z"/><title>图层 1</title><path fill="#fff" d="M131.833 40h90v28h-90z"/><path stroke="#000" stroke-linecap="round" stroke-linejoin="round" d="M131.833 40h90v28h-90z"/><text transform="translate(136.833 40)" fill="#000"><tspan font-family="Helvetica" font-size="12" font-weight="500" x="0" y="11" textLength="30.352">m1=1</tspan><tspan font-family="Helvetica" font-size="12" font-weight="500" x="29.467" y="11" textLength="6.674">1</tspan><tspan font-family="Helvetica" font-size="12" font-weight="500" x="0" y="25" textLength="54.047">__proto__</tspan></text><path fill="#fff" d="M131.833 26h90v14h-90z"/><path stroke="#000" stroke-linecap="round" stroke-linejoin="round" d="M131.833 26h90v14h-90z"/><text transform="translate(136.833 26)" fill="#000"><tspan font-family="Helvetica" font-size="12" font-weight="bold" x="33.326" y="11" textLength="13.348">c1</tspan></text><path fill="#fff" d="M269.833 40h90v48h-90z"/><path stroke="#000" stroke-linecap="round" stroke-linejoin="round" d="M269.833 40h90v48h-90z"/><text transform="translate(274.833 40)" fill="#000"><tspan font-family="PingFang SC" font-size="12" font-weight="500" x="0" y="13" textLength="34.344">m1=12</tspan><tspan font-family="PingFang SC" font-size="12" font-weight="500" x="0" y="30" textLength="17.46">m2</tspan><tspan font-family="Helvetica" font-size="12" font-weight="500" x="0" y="45" textLength="54.047">__proto__</tspan></text><path fill="#fff" d="M269.833 26h90v14h-90z"/><path stroke="#000" stroke-linecap="round" stroke-linejoin="round" d="M269.833 26h90v14h-90z"/><text transform="translate(274.833 26)" fill="#000"><tspan font-family="Helvetica" font-size="12" font-weight="bold" x="33.326" y="11" textLength="13.348">c2</tspan></text><path fill="#fff" d="M144.5 119h90v51h-90z"/><path stroke="#000" stroke-linecap="round" stroke-linejoin="round" d="M144.5 119h90v51h-90z"/><text transform="translate(149.5 119)" fill="#000"><tspan font-family="PingFang SC" font-size="12" font-weight="500" x="0" y="13" textLength="39.084">m1＝10</tspan><tspan font-family="PingFang SC" font-size="12" font-weight="500" x="0" y="30" textLength="17.46">m2</tspan><tspan font-family="PingFang SC" font-size="12" font-weight="500" x="0" y="47" textLength="53.736">__proto__</tspan></text><path fill="#fff" d="M144.5 105h90v14h-90z"/><path stroke="#000" stroke-linecap="round" stroke-linejoin="round" d="M144.5 105h90v14h-90z"/><text transform="translate(149.5 105)" fill="#000"><tspan font-family="Helvetica" font-size="12" font-weight="bold" x="36.335" y="11" textLength="7.33">p</tspan></text><path fill="#fff" d="M157.167 250.75h143v14h-143z"/><path stroke="#000" stroke-linecap="round" stroke-linejoin="round" d="M157.167 250.75h143v14h-143z"/><text transform="translate(162.167 250.75)" fill="#000"><tspan font-family="Helvetica" font-size="12" font-weight="bold" x="18.497" y="11" textLength="96.006">Object.prototype</tspan></text><path fill="#fff" d="M157.167 264.75h143v28h-143z"/><path stroke="#000" stroke-linecap="round" stroke-linejoin="round" d="M157.167 264.75h143v28h-143z"/><text transform="translate(162.167 264.75)" fill="#000"><tspan font-family="Helvetica" font-size="12" font-weight="500" x="0" y="11" textLength="30.352">m0=1</tspan><tspan font-family="Helvetica" font-size="12" font-weight="500" x="0" y="25" textLength="79.734">__proto__=null</tspan></text><path marker-end="url(#a)" stroke="#000" stroke-linecap="round" stroke-linejoin="round" stroke-dasharray="4,4" d="M282.47 84.09l-39.386 22.626M182.082 62.883l3.208 32.266M186.306 165.818l30.287 75.74"/><path fill="#fff" d="M282.5 142h90v28h-90z"/><path stroke="#000" stroke-linecap="round" stroke-linejoin="round" d="M282.5 142h90v28h-90z"/><text transform="translate(287.5 142)" fill="#000"><tspan font-family="Helvetica" font-size="12" font-weight="500" x="0" y="11" textLength="50.373">m2_2=21</tspan><tspan font-family="Helvetica" font-size="12" font-weight="500" x="0" y="25" textLength="54.047">__proto__</tspan></text><path fill="#fff" d="M282.5 128h90v14h-90z"/><path stroke="#000" stroke-linecap="round" stroke-linejoin="round" d="M282.5 128h90v14h-90z"/><text transform="translate(287.5 128)" fill="#000"><tspan font-family="Helvetica" font-size="12" font-weight="bold" x="15.323" y="11" textLength="49.354">&amp;lt;object&amp;gt;</tspan></text><path marker-end="url(#a)" stroke="#000" stroke-linecap="round" stroke-linejoin="round" stroke-dasharray="4,4" d="M171.57 145.41l101.033 2.326M309.566 165.191l-58.97 77.674"/><path fill="#fff" d="M432 142h90v28h-90z"/><path stroke="#000" stroke-linecap="round" stroke-linejoin="round" d="M432 142h90v28h-90z"/><text transform="translate(437 142)" fill="#000"><tspan font-family="Helvetica" font-size="12" font-weight="500" x="0" y="11" textLength="50.373">m2_2=22</tspan><tspan font-family="Helvetica" font-size="12" font-weight="500" x="0" y="25" textLength="54.047">__proto__</tspan></text><path fill="#fff" d="M432 128h90v14h-90z"/><path stroke="#000" stroke-linecap="round" stroke-linejoin="round" d="M432 128h90v14h-90z"/><text transform="translate(437 128)" fill="#000"><tspan font-family="Helvetica" font-size="12" font-weight="bold" x="15.323" y="11" textLength="49.354">&amp;lt;object&amp;gt;</tspan></text><path marker-end="url(#a)" stroke="#000" stroke-linecap="round" stroke-linejoin="round" stroke-dasharray="4,4" d="M297.133 66.336l125.872 57.849M447.898 163.301L279.992 246.36"/></g></svg>