<svg xmlns="http://www.w3.org/2000/svg" viewBox="0 0 491 433" width="491pt" height="433pt"><defs><marker orient="auto" overflow="visible" id="a" viewBox="-1 -4 10 8" markerWidth="10" markerHeight="8" color="#b1001c"><path d="M8 0H0m0-3l8 3-8 3" fill="none" stroke="currentColor"/></marker><marker orient="auto" overflow="visible" id="b" viewBox="-1 -4 10 8" markerWidth="10" markerHeight="8" color="#000"><path d="M8 0H0m0-3l8 3-8 3" fill="none" stroke="currentColor"/></marker></defs><g fill="none"><title>code2</title><path fill="#fff" d="M0 0h717v615H0z"/><title>Layer 1</title><path fill="#fff" d="M162.5 98h90v14h-90z"/><path stroke="#000" stroke-linecap="round" stroke-linejoin="round" d="M162.5 98h90v14h-90z"/><text transform="translate(167.5 98)" fill="#000"><tspan font-family="Helvetica" font-size="12" font-weight="500" x="0" y="11" textLength="54.047">__proto__</tspan></text><path fill="#fff" d="M162.5 84h90v14h-90z"/><path stroke="#000" stroke-linecap="round" stroke-linejoin="round" d="M162.5 84h90v14h-90z"/><text transform="translate(167.5 84)" fill="#000"><tspan font-family="Helvetica" font-size="12" font-weight="bold" x="33.326" y="11" textLength="13.348">c1</tspan></text><path fill="#fff" d="M300.5 98h90v14h-90z"/><path stroke="#000" stroke-linecap="round" stroke-linejoin="round" d="M300.5 98h90v14h-90z"/><text transform="translate(305.5 98)" fill="#000"><tspan font-family="Helvetica" font-size="12" font-weight="500" x="0" y="11" textLength="54.047">__proto__</tspan></text><path fill="#fff" d="M300.5 84h90v14h-90z"/><path stroke="#000" stroke-linecap="round" stroke-linejoin="round" d="M300.5 84h90v14h-90z"/><text transform="translate(305.5 84)" fill="#000"><tspan font-family="Helvetica" font-size="12" font-weight="bold" x="33.326" y="11" textLength="13.348">c2</tspan></text><path fill="#fff" d="M217.5 183.25h90v51h-90z"/><path stroke="#000" stroke-linecap="round" stroke-linejoin="round" d="M217.5 183.25h90v51h-90z"/><text transform="translate(222.5 183.25)" fill="#000"><tspan font-family="PingFang SC" font-size="12" font-weight="500" x="0" y="13" textLength="39.084">m1＝10</tspan><tspan font-family="PingFang SC" font-size="12" font-weight="500" x="0" y="30" textLength="17.46">m2</tspan><tspan font-family="PingFang SC" font-size="12" font-weight="500" x="0" y="47" textLength="53.736">__proto__</tspan></text><path fill="#fff" d="M217.5 169.25h90v14h-90z"/><path stroke="#000" stroke-linecap="round" stroke-linejoin="round" d="M217.5 169.25h90v14h-90z"/><text transform="translate(222.5 169.25)" fill="#000"><tspan font-family="Helvetica" font-size="12" font-weight="bold" x="36.335" y="11" textLength="7.33">p</tspan></text><path fill="#fff" d="M274 400.5h143v14H274z"/><path stroke="#000" stroke-linecap="round" stroke-linejoin="round" d="M274 400.5h143v14H274z"/><text transform="translate(279 400.5)" fill="#000"><tspan font-family="Helvetica" font-size="12" font-weight="bold" x="18.497" y="11" textLength="96.006">Object.prototype</tspan></text><path fill="#fff" d="M274 414.5h143v14H274z"/><path stroke="#000" stroke-linecap="round" stroke-linejoin="round" d="M274 414.5h143v14H274z"/><text transform="translate(279 414.5)" fill="#000"><tspan font-family="Helvetica" font-size="12" font-weight="500" x="0" y="11" textLength="79.734">__proto__=null</tspan></text><path fill="#fff" d="M125 304.5h90v28h-90z"/><path stroke="#000" stroke-linecap="round" stroke-linejoin="round" d="M125 304.5h90v28h-90z"/><text transform="translate(130 304.5)" fill="#000"><tspan font-family="Helvetica" font-size="12" font-weight="500" x="0" y="11" textLength="50.033">prototype</tspan><tspan font-family="Helvetica" font-size="12" font-weight="500" x="0" y="25" textLength="54.047">__proto__</tspan></text><path fill="#fff" d="M125 286.5h90v18h-90z"/><path stroke="#000" stroke-linecap="round" stroke-linejoin="round" d="M125 286.5h90v18h-90z"/><text transform="translate(130 287)" fill="#000"><tspan font-family="Helvetica" font-size="12" font-weight="bold" x="3.994" y="13" textLength="8.004">P</tspan><tspan font-family="PingFang SC" font-size="12" font-weight="bold" x="11.998" y="13" textLength="64.008">&amp;lt;Function&amp;gt;</tspan></text><path fill="#fff" d="M46 395.5h130v14H46z"/><path stroke="#000" stroke-linecap="round" stroke-linejoin="round" d="M46 395.5h130v14H46z"/><text transform="translate(51 395.5)" fill="#000"><tspan font-family="Helvetica" font-size="12" font-weight="500" x="0" y="11" textLength="54.047">__proto__</tspan></text><path fill="#fff" d="M46 381.5h130v14H46z"/><path stroke="#000" stroke-linecap="round" stroke-linejoin="round" d="M46 381.5h130v14H46z"/><text transform="translate(51 381.5)" fill="#000"><tspan font-family="Helvetica" font-size="12" font-weight="bold" x="5.341" y="11" textLength="109.318">Function.prototype</tspan></text><path fill="#fff" d="M284.5 300.5h90v42h-90z"/><path stroke="#000" stroke-linecap="round" stroke-linejoin="round" d="M284.5 300.5h90v42h-90z"/><text transform="translate(289.5 300.5)" fill="#000"><tspan font-family="Helvetica" font-size="12" font-weight="500" x="0" y="11" textLength="59.355">constructor</tspan><tspan font-family="Helvetica" font-size="12" font-weight="500" x="0" y="25" textLength="30.352">m0=1</tspan><tspan font-family="Helvetica" font-size="12" font-weight="500" x="0" y="39" textLength="54.047">__proto__</tspan></text><path fill="#fff" d="M284.5 286.5h90v14h-90z"/><path stroke="#000" stroke-linecap="round" stroke-linejoin="round" d="M284.5 286.5h90v14h-90z"/><text transform="translate(289.5 286.5)" fill="#000"><tspan font-family="Helvetica" font-size="12" font-weight="bold" x="7.439" y="11" textLength="8.004">P</tspan><tspan font-family="Helvetica" font-size="12" font-weight="bold" x="13.896" y="11" textLength="58.664">.prototype</tspan></text><path fill="#fff" d="M46 160h90v28H46z"/><path stroke="#000" stroke-linecap="round" stroke-linejoin="round" d="M46 160h90v28H46z"/><text transform="translate(51 160)" fill="#000"><tspan font-family="Helvetica" font-size="12" font-weight="500" x="0" y="11" textLength="50.033">prototype</tspan><tspan font-family="Helvetica" font-size="12" font-weight="500" x="0" y="25" textLength="54.047">__proto__</tspan></text><path fill="#fff" d="M46 142h90v18H46z"/><path stroke="#000" stroke-linecap="round" stroke-linejoin="round" d="M46 142h90v18H46z"/><text transform="translate(51 142.5)" fill="#000"><tspan font-family="Helvetica" font-size="12" font-weight="bold" x="3.663" y="13" textLength="8.666">C</tspan><tspan font-family="PingFang SC" font-size="12" font-weight="bold" x="12.329" y="13" textLength="64.008">&amp;lt;Function&amp;gt;</tspan></text><path marker-end="url(#a)" stroke="#b1001c" stroke-linecap="round" stroke-linejoin="round" stroke-dasharray="4,4" d="M108.207 164.063l99.676 24.346"/><path marker-end="url(#b)" stroke="#000" stroke-linecap="round" stroke-linejoin="round" stroke-dasharray="4,4" d="M111.188 402.68l152.925 7.714"/><path d="M178.742 310.723L201 320l44.824 9.914 28.94-5.33" marker-end="url(#a)" stroke="#b1001c" stroke-linecap="round" stroke-linejoin="round" stroke-dasharray="4,4"/><path marker-end="url(#b)" stroke="#000" stroke-linecap="round" stroke-linejoin="round" stroke-dasharray="4,4" d="M273.48 228.379l32.409 49.822M152.918 320.68l-29.236 52.183M334.324 109.09l-40.567 52.335M217.473 108.699l24.988 51.64"/><path marker-end="url(#a)" stroke="#b1001c" stroke-linecap="round" stroke-linejoin="round" stroke-dasharray="4,4" d="M292.328 306.051l-67.432 1.901"/><path marker-end="url(#b)" stroke="#000" stroke-linecap="round" stroke-linejoin="round" stroke-dasharray="4,4" d="M331.434 324.148l10.363 66.57M95.688 179.207l13.622 192.418"/><path fill="#fff" d="M396.5 206.25h90v28h-90z"/><path stroke="#000" stroke-linecap="round" stroke-linejoin="round" d="M396.5 206.25h90v28h-90z"/><text transform="translate(401.5 206.25)" fill="#000"><tspan font-family="Helvetica" font-size="12" font-weight="500" x="0" y="11" textLength="50.373">m2_2=20</tspan><tspan font-family="Helvetica" font-size="12" font-weight="500" x="0" y="25" textLength="54.047">__proto__</tspan></text><path fill="#fff" d="M396.5 192.25h90v14h-90z"/><path stroke="#000" stroke-linecap="round" stroke-linejoin="round" d="M396.5 192.25h90v14h-90z"/><text transform="translate(401.5 192.25)" fill="#000"><tspan font-family="Helvetica" font-size="12" font-weight="bold" x="15.323" y="11" textLength="49.354">&amp;lt;object&amp;gt;</tspan></text><path marker-end="url(#b)" stroke="#000" stroke-linecap="round" stroke-linejoin="round" stroke-dasharray="4,4" d="M244.57 209.66l142.032 2.589M429.602 230.484l-73.588 161.012"/></g></svg>